# Blender v3.0.0 Beta OBJ File: ''
# www.blender.org
o Cube_Cube.003
v -14.362542 -8.999553 -19.583765
v -14.362542 -8.999555 20.416235
v -14.362542 11.000447 -19.583765
v -14.362542 11.000445 20.416235
v 5.637458 -8.999553 -19.583765
v 5.637458 -8.999555 20.416235
v 5.637458 11.000447 -19.583765
v 5.637458 11.000445 20.416235
vn -1.0000 0.0000 0.0000
vn 1.0000 0.0000 0.0000
vn 0.0000 -1.0000 -0.0000
vn 0.0000 0.0000 -1.0000
vn 0.0000 0.0000 1.0000
s off
f 2//1 3//1 1//1
f 8//2 5//2 7//2
f 6//3 1//3 5//3
f 7//4 1//4 3//4
f 4//5 6//5 8//5
f 2//1 4//1 3//1
f 8//2 6//2 5//2
f 6//3 2//3 1//3
f 7//4 5//4 1//4
f 4//5 2//5 6//5
