# Blender v3.0.0 Beta OBJ File: ''
# www.blender.org
o Cube_Cube.003
v -14.362542 -18.999554 10.416235
v -14.362542 21.000446 10.416235
v -14.362542 -18.999554 -9.583765
v -14.362542 21.000446 -9.583765
v 5.637458 -18.999554 10.416235
v 5.637458 21.000446 10.416235
v 5.637458 -18.999554 -9.583765
v 5.637458 21.000446 -9.583765
vn -0.5773 0.5773 0.5773
vn -0.7071 -0.7071 0.0000
vn -0.5773 -0.5773 0.5773
vn 0.7071 0.7071 0.0000
vn 0.5773 -0.5773 0.5773
vn 0.7071 -0.7071 0.0000
vn 0.5773 0.5773 0.5773
vn -0.7071 0.7071 0.0000
s 1
f 2//1 3//2 1//3
f 8//4 5//5 7//6
f 6//7 1//3 5//5
f 7//6 1//3 3//2
f 4//8 6//7 8//4
f 2//1 4//8 3//2
f 8//4 6//7 5//5
f 6//7 2//1 1//3
f 7//6 5//5 1//3
f 4//8 2//1 6//7
